<?xml version="1.0" encoding="utf-8"?>
<!-- Generator: Adobe Illustrator 19.2.1, SVG Export Plug-In . SVG Version: 6.00 Build 0)  -->
<svg version="1.1" id="Layer_1" xmlns="http://www.w3.org/2000/svg" xmlns:xlink="http://www.w3.org/1999/xlink" x="0px" y="0px"
	 viewBox="0 0 87.7 27.8" enable-background="new 0 0 87.7 27.8" xml:space="preserve">
<g>
	<path fill="#FFFFFF" d="M12.8,7.9C10.9,5.8,7.4,5.2,5,6.9C5.1,4.6,5.3,2.3,5.4,0C4.5,0,3.6,0,2.7,0c-0.4,0-1-0.2-1.2,0.2
		C1.3,0.4,1.4,1.2,1.4,1.6C1.3,2.4,1.2,3.3,1.2,4.2c-0.3,4.6-0.6,9.3-0.9,13.9c-0.1,1.2-0.2,2.5-0.2,3.7c1,0,1.9,0,2.9,0
		c0.2,0,1,0.1,1.1,0c0.1-0.1,0-0.3,0-0.4c0.4-2.1,0.3-4.5,0.4-6.6c0-0.6,0.1-1.3,0.1-1.9C4.8,11,6.5,9.6,8.4,10
		c2.7,0.6,2.1,3.4,2,5.4c-0.1,2.1-0.3,4.3-0.4,6.4c0.6,0,1.2,0,1.8,0c0.3,0,1.9,0.2,2.1,0C14,21.7,14,21.2,14,21
		c0-0.7,0.1-1.5,0.1-2.2C14.4,15.3,15.4,10.8,12.8,7.9C12.2,7.3,13.4,8.6,12.8,7.9z"/>
	<path fill="#FFFFFF" d="M29.2,7.9c-2.4-2.6-6.5-2.9-9.5-1.2c-2.9,1.6-4.7,4.9-4.5,8.2c0.2,3.3,2.4,6.2,5.7,7
		c3.4,0.8,6.9-0.8,8.8-3.6C31.7,15.2,31.8,10.7,29.2,7.9C28.6,7.1,29.9,8.6,29.2,7.9z M27.2,13.9c-0.1,2.2-1.8,4.1-4.1,4.2
		c-2.4,0.1-3.9-2-3.8-4.2c0.1-2.1,1.7-4.1,3.9-4.2C25.6,9.5,27.3,11.5,27.2,13.9z"/>
	<path fill="#FFFFFF" d="M45.9,7.9c-2.4-2.6-6.5-2.9-9.5-1.2c-2.9,1.6-4.7,4.9-4.5,8.2c0.2,3.3,2.4,6.2,5.7,7
		c3.4,0.8,6.9-0.8,8.8-3.6C48.4,15.2,48.5,10.7,45.9,7.9C45.2,7.1,46.6,8.6,45.9,7.9z M43.8,13.9c-0.1,2.2-1.8,4.1-4.1,4.2
		c-2.4,0.1-3.9-2-3.8-4.2c0.1-2.1,1.7-4.1,3.9-4.2C42.3,9.5,44,11.5,43.8,13.9z"/>
	<path fill="#FFFFFF" d="M62.9,7.9c-3.1-3.3-7.9-2.6-11.1,0.2c-0.4-0.5-0.9-1.6-1.5-1.9c-0.1,0-0.9-0.1-0.9,0c0,0,0,0.2,0,0.3
		c-0.2,0.4-0.1,1.1-0.1,1.5c-0.1,0.9-0.1,1.8-0.2,2.6c-0.3,4.5-0.6,9-0.9,13.5c-0.1,1.2-0.2,2.3-0.2,3.5c1,0,2,0,3,0
		c1,0,1,0.2,1-0.8c0.1-2.1,0.3-4.1,0.4-6.2c1.9,1.2,3.8,1.7,6,1.1c1.9-0.5,3.6-1.6,4.7-3.1C65.3,15.6,65.6,10.8,62.9,7.9
		C62.2,7.2,63.5,8.6,62.9,7.9z M60.8,13.9c-0.2,2.3-1.9,4.2-4.3,4.2c-2.4,0-3.9-2.1-3.7-4.4c0.2-2.2,1.9-4.1,4.2-4.1
		C59.5,9.6,61,11.6,60.8,13.9z"/>
	<path fill="#FFFFFF" d="M75.5,14.8c-0.2,2.5-3.5,4.7-5.4,2.4c-0.9-1-0.6-2.4-0.5-3.7c0.2-2.4,0.3-4.9,0.5-7.3c-0.6,0-1.1,0-1.7,0
		c-0.5,0-1.7-0.2-2.1,0c-0.4,0.2-0.3,2-0.3,2.6c-0.1,1.6-0.2,3.3-0.3,4.9c-0.1,1.7-0.2,3.3,0.6,4.9c0.7,1.4,1.9,2.5,3.3,3.1
		c1.9,0.7,3.4,0.4,5.3-0.4c-0.7,1.4-2.1,2.4-3.7,2.5c-0.4,0-1.9-0.3-2.2,0c-0.2,0.2-0.1,1.6-0.1,1.9c0,0.7-0.1,1.4-0.1,2.1
		c2.4,0,4.6,0,6.7-1.4c2.3-1.5,3.6-4,3.8-6.7c0.2-3.3,0.4-6.5,0.7-9.8c0.1-1.2,0.2-2.4,0.2-3.7c-1.2,0-2.3,0-3.5,0
		c-0.4,0-0.4-0.1-0.5,0.1c-0.2,0.3-0.1,1-0.1,1.3C75.8,10,75.6,12.4,75.5,14.8z"/>
	<path fill="#FFFFFF" d="M87.6,2.4c-0.8-4.1-7.1-2.3-6.3,1.6C82.1,8.2,88.4,6.3,87.6,2.4z M86.2,4c-1.1,2.3-4.7,0.9-3.6-1.5
		C83.7,0.2,87.4,1.5,86.2,4z"/>
</g>
</svg>
