<?xml version="1.0" encoding="utf-8"?>
<!-- Generator: Adobe Illustrator 18.1.1, SVG Export Plug-In . SVG Version: 6.00 Build 0)  -->
<svg version="1.1" id="Layer_1" xmlns="http://www.w3.org/2000/svg" xmlns:xlink="http://www.w3.org/1999/xlink" x="0px" y="0px"
	 viewBox="0 0 108 25" enable-background="new 0 0 108 25" xml:space="preserve">
<g id="Lanyrd.com">
	<g id="com">
		<path fill="#FFFFFF" d="M79.9,17.8c0.8,0,1.8-0.3,2.2-0.4c0.3-0.1,0.4,0,0.4,0.2l0.1,0.3c0.1,0.2,0,0.3-0.2,0.4
			c-0.4,0.2-1.5,0.5-2.6,0.5c-2.9,0-4.5-1.8-4.5-5.6c0-3.7,1.6-5.5,4.5-5.5c1.1,0,2.2,0.3,2.6,0.5c0.3,0.1,0.4,0.2,0.3,0.4l-0.1,0.3
			C82.4,9,82.3,9,82.1,9c-0.4-0.1-1.3-0.4-2.1-0.4c-2.3,0-3.5,1.6-3.5,4.6C76.4,16.2,77.7,17.8,79.9,17.8z"/>
		<path fill="#FFFFFF" d="M83.7,13.1c0-4.5,2.2-5.5,4.5-5.5c2.3,0,4.5,1,4.5,5.5c0,4.3-2.2,5.6-4.5,5.6
			C85.8,18.7,83.7,17.4,83.7,13.1z M91.5,13.1c0-3.8-1.5-4.6-3.3-4.6c-1.8,0-3.3,0.8-3.3,4.6c0,3.6,1.5,4.7,3.3,4.7
			C90,17.8,91.5,16.7,91.5,13.1z"/>
		<path fill="#FFFFFF" d="M94.8,8.3c0-0.4,0.1-0.4,0.7-0.4c0.5,0,0.6,0,0.6,0.5c0,0.8,0,1.6,0,2.5c0.5-2.2,2.1-3.2,3.7-3.2
			c1.3,0,2.5,0.7,2.5,3.2v0.1c0.4-2.2,2-3.3,3.5-3.3c1.3,0,2.4,0.7,2.4,3.2v7c0,0.7-0.1,0.7-0.6,0.7c-0.5,0-0.5-0.1-0.5-0.7v-6.8
			c0-1.4-0.4-2.3-1.6-2.3c-1.6,0-3.1,1.5-3.1,4.5v4.7c0,0.6-0.1,0.7-0.6,0.7c-0.5,0-0.5-0.1-0.5-0.7v-6.9c0-1.5-0.7-2.3-1.9-2.3
			c-1.6,0-2.8,1.4-3.2,4.4v4.7c0,0.6-0.1,0.7-0.6,0.7c-0.5,0-0.5-0.1-0.5-0.7v-2.7C94.8,13.6,94.8,9,94.8,8.3z"/>
	</g>
	<g id="Dot">
		<path fill="#FFFFFF" d="M69.7,17c0-1.5,0.6-1.6,1.6-1.6c1.3,0,1.5,0.1,1.5,1.1v0.4c0,1.5-0.6,1.6-1.6,1.6c-1.3,0-1.5-0.1-1.5-1.1
			V17z"/>
	</g>
	<g id="Lanyrd">
		<path fill="#FFFFFF" d="M1.8,18.3c-1.6,0-1.8,0-1.8-2.3v-5.4c0-1.3-0.1-4.8-0.1-5.5c0-1.2,0-1.3,2.4-1.3c1.8,0,1.8,0,1.8,2.1
			c0,1.7-0.2,3-0.2,4.7v4.6h5c1,0,1.2,0.1,1.1,1.3L10,17.3c-0.1,1-0.6,1-1.2,1H1.8z"/>
		<path fill="#FFFFFF" d="M14.3,12.2c1.2,0,2.2,0.3,2.9,1.3v-0.6c0-1.6-0.9-2-2-2c-0.9,0-1.8,0.2-2.3,0.4c-0.6,0.2-1.1,0.1-1.4-0.7
			l-0.4-1c-0.3-0.9,0-1.2,0.7-1.5c1.1-0.4,2.3-0.7,4-0.7c2.6,0,5.3,0.7,5.3,4.8v3.8c0,2.2-0.2,2.3-2.4,2.3c-1.2,0-1.6-0.1-1.7-1.1
			c-0.6,1-1.7,1.3-3,1.3c-2.1,0-3.4-1-3.4-3.1C10.7,13.3,12.3,12.2,14.3,12.2z M14.9,15.4c0,0.7,0.4,1.1,1,1.1s1.1-0.4,1.1-1.1
			c0-0.7-0.4-1.1-1.1-1.1S14.9,14.7,14.9,15.4z"/>
		<path fill="#FFFFFF" d="M31,18.4c-1.6,0-1.7-0.1-1.7-2.3v-3.7c0-0.7-0.4-1.1-0.9-1.1c-0.8,0-1.6,0.7-1.7,2.2
			c0,0.7-0.1,1.5-0.1,2.3v0.2c0,2.2-0.1,2.3-2.3,2.3c-1.6,0-1.7-0.1-1.7-2.3V15c0-1.3-0.2-5.3-0.2-6c0-1.2-0.1-1.3,2.3-1.3
			c1.8,0,1.8,0,1.8,2.1v0.6c0.8-2,2.3-3,3.8-3c1.5,0,2.9,0.6,2.9,3.9c0,1.4-0.1,2.7-0.1,4.1v0.6C33.3,18.3,33.2,18.4,31,18.4z"/>
		<path fill="#FFFFFF" d="M41.1,9.8c0-2,0-2.1,1.9-2.1c2.2,0,2.2,0.1,2.2,1.7c0,1.7-0.1,3.4-0.3,5.1c-0.6,4.8-2.3,9.2-7.4,9.2
			c-1,0-2-0.2-2.9-0.4c-0.7-0.2-0.9-0.4-0.7-1.1l0.3-1.4c0.2-0.8,0.7-0.7,1.1-0.6c0.4,0.1,1.1,0.2,1.7,0.2c2.2,0,2.7-1.2,3.1-3.4
			c-1,1.5-1.7,1.6-2.2,1.6c-3.3,0-3.4-5.3-3.4-9.2c0-1.6,0-1.7,2.2-1.7c1.9,0,1.9,0,1.9,2.1v0.6c0,1.6,0.2,4.7,1.1,4.7
			c0.9,0,1.2-2.9,1.2-4.7V9.8z"/>
		<path fill="#FFFFFF" d="M50.9,10.4c0.4-2,1.9-2.9,3.1-2.9c0.4,0,0.8,0,1,0.1c0.6,0.2,0.6,0.5,0.5,1.1l-0.3,1.6
			c-0.1,0.6-0.3,0.8-1.1,0.7c-0.3-0.1-0.8-0.1-1.1-0.1c-1.3,0-2.2,0.7-2.6,3.5V16c0,2.3-0.1,2.4-2.3,2.4c-1.6,0-1.7-0.1-1.7-2.4v-1
			c0-1.3-0.1-5.3-0.1-6c0-1.2,0.1-1.3,2.4-1.3c1.8,0,2,0,2,2.1V10.4z"/>
		<path fill="#FFFFFF" d="M60,7.5c1.6,0,2.5,0.7,3.1,2c0-1.7-0.1-4.4-0.1-4.9c0-1.2,0-1.3,2.4-1.3c1.8,0,1.8,0,1.8,2.1
			c0,1.7-0.2,3.5-0.2,5.2v5.5c0,2.2-0.1,2.3-2.2,2.3c-1.5,0-1.7-0.1-1.7-1.8c-0.5,1.3-1.5,2-3,2c-2.8,0-4.3-1.9-4.3-5.5
			C55.7,9.3,57.4,7.5,60,7.5z M63,13.2c0-1.6-0.8-2.3-1.6-2.3c-1,0-1.6,0.9-1.6,2.3c0,1.5,0.6,2.4,1.6,2.4
			C62.3,15.6,63,14.7,63,13.2z"/>
	</g>
</g>
</svg>
