<?xml version="1.0" encoding="utf-8"?>
<!-- Generator: Adobe Illustrator 18.1.1, SVG Export Plug-In . SVG Version: 6.00 Build 0)  -->
<svg version="1.1" id="Layer_1" xmlns="http://www.w3.org/2000/svg" xmlns:xlink="http://www.w3.org/1999/xlink" x="0px" y="0px"
	 viewBox="101.9 36.7 50.7 41.1" enable-background="new 101.9 36.7 50.7 41.1" xml:space="preserve">
<path fill="#FFFFFF" d="M136.4,36.7c4-0.1,6.2,1.4,8.3,3.3c1.7-0.2,4-1.1,5.3-1.8c0.4-0.2,0.9-0.5,1.3-0.7c-0.8,2.1-1.8,3.7-3.4,4.9
	c-0.3,0.2-0.7,0.6-1.1,0.8l0,0c2.2,0,4.1-1,5.9-1.6l0,0c-1,1.5-2.2,3-3.6,4c-0.6,0.4-1.1,0.9-1.6,1.3c0,2.4,0,4.7-0.5,6.7
	c-2.6,11.7-9.5,19.6-20.4,23c-3.9,1.2-10.2,1.7-14.8,0.6c-2.2-0.6-4.2-1.2-6.1-2c-1-0.5-2-1-2.9-1.5c-0.2-0.1-0.6-0.2-0.9-0.5
	c1,0,2.2,0.3,3.3,0.2c1-0.2,2.1-0.2,2.9-0.3c2.4-0.6,4.4-1.2,6.3-2.2c0.9-0.5,2.2-1.1,2.9-1.8c-1.2,0-2.2-0.2-3.1-0.6
	c-3.3-1.2-5.3-3.4-6.6-6.7c1,0.1,4,0.4,4.7-0.2c-1.3-0.1-2.5-0.8-3.4-1.3c-2.7-1.7-4.9-4.5-4.9-8.9c0.3,0.2,0.7,0.3,1,0.5
	c0.7,0.3,1.3,0.5,2.2,0.6c0.3,0.1,1,0.2,1.4,0.2h-0.1c-0.6-0.6-1.3-1-1.9-1.7c-1.7-2.3-3.4-5.6-2.4-9.6c0.2-1,0.7-1.9,1.1-2.7
	c0,0,0,0,0.1,0c0.2,0.5,0.6,0.8,1,1.1c0.9,1.1,2,2.1,3.1,2.9c3.8,2.9,7.2,4.8,12.7,6.2c1.4,0.3,3,0.6,4.7,0.6
	c-0.5-1.3-0.3-3.6,0.1-4.9c1-3.3,2.9-5.7,5.9-7c0.7-0.3,1.5-0.6,2.3-0.7C135.6,36.8,136,36.8,136.4,36.7"/>
</svg>
